<?xml version="1.0" standalone="no"?>
<!DOCTYPE svg PUBLIC "-//W3C//DTD SVG 20010904//EN"
 "http://www.w3.org/TR/2001/REC-SVG-20010904/DTD/svg10.dtd">
<svg version="1.0" xmlns="http://www.w3.org/2000/svg"
 width="500.000000pt" height="500.000000pt" viewBox="0 0 500.000000 500.000000"
 preserveAspectRatio="xMidYMid meet">

<g transform="translate(0.000000,500.000000) scale(0.100000,-0.100000)"
fill="#000000" stroke="none">
<path d="M2441 3798 c6 -34 5 -56 -3 -65 -8 -10 -4 -13 18 -13 22 0 25 3 16
12 -16 16 -16 105 1 111 6 3 0 6 -14 6 -26 1 -26 1 -18 -51z"/>
<path d="M2278 3835 c-4 -4 -2 -20 4 -36 6 -16 8 -43 6 -59 -5 -32 9 -37 59
-24 28 8 41 43 22 58 -8 6 -14 22 -14 36 0 21 -5 25 -35 28 -20 2 -39 0 -42
-3z m57 -30 c0 -28 -29 -25 -33 3 -3 19 0 23 15 20 10 -2 18 -12 18 -23z m20
-45 c8 -13 -13 -40 -31 -40 -8 0 -14 10 -14 25 0 18 5 25 19 25 11 0 23 -5 26
-10z"/>
<path d="M2565 3788 c-40 -70 -39 -68 -17 -68 15 0 19 5 15 21 -5 18 -2 20 23
17 20 -2 29 -8 28 -20 -1 -9 7 -19 17 -21 11 -3 19 -4 19 -4 -2 20 -40 122
-46 124 -5 2 -22 -21 -39 -49z m44 -10 c1 -5 -8 -8 -19 -8 -17 0 -18 3 -8 26
11 23 13 24 19 7 4 -10 8 -21 8 -25z"/>
<path d="M2136 3788 c-2 -13 -8 -44 -14 -70 -10 -50 -7 -54 18 -38 9 6 11 10
3 10 -20 0 -4 28 20 34 22 5 40 -11 30 -28 -4 -5 1 -7 11 -3 10 4 23 7 29 7 7
0 5 5 -5 10 -9 6 -29 30 -45 55 -32 51 -41 55 -47 23z m32 -41 c2 -10 -3 -17
-12 -17 -10 0 -16 9 -16 21 0 24 23 21 28 -4z"/>
<path d="M1973 3753 c-7 -2 -13 -13 -13 -23 0 -22 18 -37 50 -42 15 -2 26 -11
28 -22 4 -16 0 -18 -27 -13 -31 6 -44 -6 -17 -16 21 -8 61 17 61 38 0 14 -10
23 -33 31 -45 14 -61 31 -37 40 11 5 20 3 23 -4 2 -7 8 -10 13 -6 25 15 -17
30 -48 17z"/>
<path d="M1738 3635 c-7 -7 15 -135 23 -135 4 0 11 5 14 10 3 6 1 10 -4 10
-19 0 -12 25 11 39 19 11 23 11 33 -3 10 -14 14 -14 31 -1 13 10 15 14 5 15
-7 0 -35 16 -61 35 -26 19 -49 33 -52 30z m52 -56 c0 -15 -29 -17 -34 -3 -11
28 -6 34 14 22 11 -7 20 -16 20 -19z"/>
<path d="M3190 3590 c-41 -11 -140 -53 -220 -93 l-145 -72 -65 18 c-96 28
-331 35 -439 13 -248 -50 -461 -184 -611 -385 -100 -133 -174 -327 -188 -491
l-7 -85 -33 125 c-48 181 -63 220 -84 220 -10 0 -18 -7 -18 -15 0 -23 164
-624 225 -824 73 -238 82 -261 106 -261 24 0 42 43 34 81 -5 24 4 17 67 -45
127 -124 276 -209 456 -258 104 -29 362 -31 466 -5 359 90 624 345 732 702 25
82 27 105 28 260 1 148 -2 181 -22 255 -49 180 -150 349 -284 475 -76 71 -214
164 -277 186 -17 6 -31 15 -31 20 0 16 258 136 330 154 97 24 195 18 243 -15
88 -60 94 -142 22 -312 -13 -31 24 -21 42 11 l17 29 33 -43 c50 -66 137 -239
172 -340 47 -139 65 -259 64 -425 0 -218 -47 -408 -144 -588 -206 -385 -545
-621 -986 -687 -178 -27 -392 -5 -580 59 -388 131 -690 438 -818 830 -21 65
-38 102 -48 104 -14 3 -14 -5 3 -66 62 -225 184 -428 351 -587 208 -198 419
-309 689 -361 138 -26 360 -24 500 6 263 56 487 175 665 354 119 120 182 206
254 348 103 201 145 378 144 608 -1 274 -75 516 -228 740 -52 76 -55 85 -46
113 17 46 13 128 -7 167 -9 19 -37 48 -60 65 -40 27 -51 30 -135 32 -66 2
-113 -3 -167 -17z m-1490 -1693 c0 -16 -18 3 -23 25 -6 22 -5 22 8 4 8 -11 15
-24 15 -29z"/>
<path d="M1615 3546 c-15 -12 -16 -15 -5 -16 16 0 70 -62 70 -81 0 -9 3 -9 14
0 12 10 9 17 -16 44 -16 18 -33 40 -37 50 -6 16 -9 16 -26 3z"/>
<path d="M1505 3447 l-27 -23 46 -45 c45 -46 46 -46 63 -26 10 11 12 17 5 13
-13 -8 -42 10 -42 25 0 5 19 8 41 7 29 -2 43 1 47 11 3 8 0 11 -6 7 -15 -9
-63 4 -56 16 7 12 -14 38 -32 38 -7 0 -25 -10 -39 -23z m52 -13 c3 -8 1 -20
-6 -27 -14 -14 -47 15 -37 32 10 16 36 13 43 -5z"/>
<path d="M1390 3315 c0 -3 14 -29 30 -58 17 -30 27 -58 23 -63 -5 -5 2 0 15
10 25 22 28 31 8 23 -23 -9 -27 19 -6 38 16 14 23 15 34 6 12 -10 17 -8 26 10
7 12 8 19 3 16 -5 -3 -31 0 -58 8 -50 16 -75 19 -75 10z m61 -25 c4 0 6 -7 3
-15 -8 -21 -21 -19 -35 7 -10 18 -9 20 6 15 9 -4 21 -7 26 -7z"/>
<path d="M1304 3196 c-4 -11 3 -27 20 -45 36 -38 33 -45 -19 -38 -38 6 -46 4
-55 -13 -8 -15 -7 -18 2 -15 8 3 34 -8 60 -24 37 -23 48 -27 52 -15 3 8 -1 14
-9 14 -8 0 -29 9 -47 19 l-32 20 60 -6 59 -6 -20 24 c-12 13 -27 33 -35 43
-15 19 -14 19 17 3 17 -9 35 -22 39 -28 4 -8 9 -7 15 2 10 16 12 35 3 26 -7
-7 -60 18 -86 41 -16 13 -18 13 -24 -2z"/>
</g>
</svg>
